<svg id="Layer_1" data-name="Layer 1" xmlns="http://www.w3.org/2000/svg" viewBox="0 0 1200 1200"><defs><style>.cls-1{fill:#212121;}</style></defs><path class="cls-1" d="M881.49,449.21c15.87-84.49,43.15-182.92,7.35-251.34C807.77,60.7,706,88.28,577.7,115.8,398,65.7,211.62,220.17,186.92,397c-44.73,174.42,49.76,344,159.32,470.56,14.34,112,69.26,202.52,147.53,283.31,20.49-95.69,54.92-219.88-8.25-304.68-48.24-53-76.79-197-76.79-201.69-67-17.45-37.15-106.27,3.46-134,13.76,2.44,27.6,3.23,41.54,3.58,14.48.35,29,.25,43.44-.77,2.24,54.67,35.3,85.93,91.65,85.93,58.38,0,91.86-33.48,91.86-91.87,0-3-.17-6-.45-9,17.66-6.15,34.44-4.78,52.37.19-.25,2.89-.41,5.81-.41,8.76,0,22.69,6.16,42.44,16.88,57.8a60.8,60.8,0,0,0-12.05-9c-10.07-5.7-18.29,9.6-8,14.85,14,6.55,21.35,17.51,6.27,26.3-13.61,7.91-31.66,8.06-47.29,5.61a4.72,4.72,0,0,0-1.87,9.25,108.24,108.24,0,0,0,27.4,3c31.45.35,53.65-21,41.72-42.12,14.87,16.52,36.07,26.19,61.12,26.19,18.36,0,34.65-5.21,47.91-14.49,36.09,157.13-75.17,229-227.51,214.77a203.75,203.75,0,0,1-34.38-8.69c-5.07-1.74-7.81,5.81-2.93,7.8C627,809.75,657,814.88,686.72,814.92c6.41,0,12.8-.23,19.19-.64-57.57,152.56,83.16,314.93,85.26,316,54.89-99.55,114.4-204.41,88.16-322.37-15.39-74.62,15.62-160.63-.54-236.48,13.75-16.07,21.77-38.18,21.77-64.12A96.64,96.64,0,0,0,881.49,449.21Zm2.2,58.14c0,15.93-3.64,30.07-10.1,41.71-2.93-21.48-.88-46.71,3.41-74.1A81.58,81.58,0,0,1,883.69,507.35Zm-294.87,75c-62,0-75-40.78-75-75a75,75,0,0,1,150,0C663.81,541.57,650.8,582.35,588.82,582.35Zm88.8-98.11a91.79,91.79,0,0,0-180.13,13.29c-21.81-1.27-43.75-1.73-65.5.24-5.85-22.74-11.89-62.16,2.11-84,18.94-43,66.74-38,98.55-60.09,68.55-98.3,229.92-34.72,297.42,37.21.86,1.09,1.61,2.29,2.42,3.43-3-.38-5.92-.69-8.9-.85A137.77,137.77,0,0,0,772,400.85a4.49,4.49,0,0,0,2.53,8.62A121,121,0,0,1,842,411q2.36,5.16,4.3,10.65a77.48,77.48,0,0,0-30-6.11c-39.28,0-72.26,29.55-81.51,69.31C717.17,475.9,694.56,474.11,677.62,484.24Zm138.76,98.11c-39.64,0-67.32-30.84-67.32-75,0-41.35,30.2-75,67.32-75a62,62,0,0,1,36.13,11.82c7.12,35.15,5.46,75.14,1.72,105.48,2,5.76,3.73,11.41,5.34,17C848.2,576.63,833.4,582.35,816.38,582.35Z"/><path class="cls-1" d="M597,484.18c-9.17-.11-16.74,11.05-16.91,24.94s7.11,25.25,16.28,25.36,16.73-11.05,16.91-24.94S606.11,484.3,597,484.18Z"/><path class="cls-1" d="M801.82,484.25c-8.26-.1-15.09,10-15.25,22.49S793,529.5,801.25,529.6s15.09-10,15.25-22.49S810.09,484.35,801.82,484.25Z"/><path class="cls-1" d="M707.36,712.09c15.87,0,31-5.71,45.16-17.11A8.43,8.43,0,1,0,742,681.84c-22.47,18-46.15,17.9-74.51-.51a8.44,8.44,0,0,0-9.18,14.16Q683.85,712.08,707.36,712.09Z"/><path class="cls-1" d="M630.63,400.85c-33-11.67-71.27-9.85-102.7,6.47-10.3,5.33-2,20.56,8.06,14.82a115.47,115.47,0,0,1,44.26-15.81c15.73-2.16,32-.82,47.85,3.14a4.5,4.5,0,0,0,2.53-8.62Z"/></svg>