<svg id="Layer_1" data-name="Layer 1" xmlns="http://www.w3.org/2000/svg" viewBox="0 0 1200 1200"><defs><style>.cls-1{fill:#212121;}</style></defs><path class="cls-1" d="M901.53,696.54c-1.77-79.41-12.76-158.63-25-236.91C906,341.45,843.59,230.72,720.18,194.42c-122.63-36.07-207.47,25.84-255.58,67.46,2.31-15.79,8.49-30.66,17.26-44.15a4.25,4.25,0,0,0-6.86-5c-7.54,9.23-14.28,19.19-19.14,30.22-3.25,6.33-5.06,14.32-6.85,21.75l-.8.1a148.71,148.71,0,0,0-61.35-26.45c-5.15-1.05-7.15,6.62-2.14,8.22a151.31,151.31,0,0,1,17.68,6.55,115.72,115.72,0,0,1,24.32,14.19c-5.85-1.13-13-.68-17.33-1.57-19.25-1.4-38.57-1.69-57.81-1.55-5.27.05-5.63,8-.38,8.49,13.23,1.43,26.61,3,39.88,5C285.61,311.75,240.69,390.81,226,425.39c-16.42,38.64-28.35,175-26.64,229.28-8.7-4.06-17.1-7.45-23.83-9.83-23.46-8.32-54.17-15.48-67.28-2.36-8.92,8.91-11.78,20.87-8,33.68,4.87,16.71,20.39,32.6,34.58,39.94-13.62,5.85-23.6,12.8-30.79,19.46C90.34,748.21,82.51,763.68,82.51,778c0,30.28,30,88.17,77.09,88.17,12.57,0,24.8-5.22,36-14.38-10.28,33.05-12.45,66.4,19.36,80.13a50.12,50.12,0,0,0,20,4.48,38.37,38.37,0,0,0,23.28-7.8C273,917.53,281,897,284.61,877.9c31.8,6.46,68.24,2.25,78.72,4.22,16.64,3.12,19.76,65.54,38.49,76s25,36.41,29.13,55.14,13.53,22.89,14.57,53.06,2.08,42.66,14.56,36.41c2.08-14.56,1-116.52-6.24-135.25s7.28-5.2,15.61-43.69S432,804.09,424.71,789.52c-4.48-24.17-9-52.2-24.08-78.78,2.26,0,4.36-.08,6-.13,1.28,0,2.29-.06,2.95-.06a8.44,8.44,0,1,0,0-16.88c-.77,0-1.94,0-3.42.07-5.37.15-16,.43-25.24-.65-19.08-9.57-55.15-34.57-54-86.67-5.2-40.58,47.86-53.06,68.67-51s46.82,3.12,69.7-49.94C530.83,353.6,642.15,317.19,721.22,313s72.83,38.5,77,58.27c25,2.08,51,27,55.14,46.81.32,1.52.67,2.92,1,4.27a8.57,8.57,0,0,0-.33,2.64c-24.77-11.68-57.74-6.6-75.26,15.5-4.57,6.05,3.85,13.77,9.49,8.63a50.12,50.12,0,0,1,18.46-10.33,59.92,59.92,0,0,1,50.46,5.87c14,83.82,27.09,167.33,29.73,252.16.09,36.82,1.53,75.21-13.69,108.57-11,18.09-33.07,26.08-52.31,34.07-64.68,24.16-205.4,43.71-249.85-21.94a5.4,5.4,0,1,0-9.26,5.56c24.62,37.48,72.18,48.77,118,50.47.84,15.62,3.8,74.64,2.91,110.51-1,41.61,8.32,107.16,23.93,104s3.12-60.35,1-80.11,10.4-48.9,48.89-67.63c34.53-16.8,53.94-57,57.59-84.62,18.77-6.06,36.87-14.09,53.6-25,14-8.61,22.48-26,26.05-41.62C901.44,758.17,901.82,727.21,901.53,696.54Zm-753.39,6.79c-9.67-2.15-27.26-16.49-31.75-31.89-2-6.91-.77-12.48,3.78-17,1.16-1.16,4.4-2.3,10.34-2.3,6.79,0,17.1,1.48,31.85,6.12,26.24,8.24,48.3,20.3,60.69,29.54A109.59,109.59,0,0,1,231.3,699a51.8,51.8,0,0,1-9.18,3.21c-20.2-.43-37.54.95-52.28,3.63A143.31,143.31,0,0,1,148.14,703.33Zm11.46,146c-36.84,0-60.22-50.13-60.22-71.3,0-3.56,1.16-16.24,16.07-30.06,8.78-8.14,25.9-19.37,56.37-25.16,3.64.15,7.42.24,11.29.24,13.73,0,28.46-1.08,40.85-3.93q4.35.12,8.89.36C229.37,787.27,195,849.3,159.6,849.3Zm88.5,65.78c-7.3,5.45-15.95,5.89-26.46,1.35C194.18,904.57,206,867.05,225,821.88A132.61,132.61,0,0,0,239.52,852c6.46,10.22,16.76,16.95,28.74,21.38C265.41,889.49,259.05,906.9,248.1,915.08Z"/><path class="cls-1" d="M380.17,581.84c-15,2-24.75,15.4-30,22.59a8.44,8.44,0,1,0,13.65,9.92c4-5.51,10.71-14.73,18.58-15.79,4.23-.58,9.06,1.27,14.32,5.48a8.44,8.44,0,0,0,10.54-13.18C398.29,583.67,389.2,580.63,380.17,581.84Z"/><path class="cls-1" d="M685.09,455.08A6.47,6.47,0,0,0,683.8,446c-35-25.85-93-23.13-122.42,10.53-5,6.64,4.5,14.29,10,8.13,28.31-23.21,73.22-24.73,105.33-7.84A6.46,6.46,0,0,0,685.09,455.08Z"/><path class="cls-1" d="M629.78,591.24c10.88-1.2,18.22-15.71,16.39-32.43s-12.14-29.29-23-28.1-18.23,15.71-16.39,32.43S618.89,592.43,629.78,591.24Z"/><path class="cls-1" d="M846.52,549.27c-1.83-16.71-12.14-29.29-23-28.1s-18.23,15.71-16.39,32.43,12.14,29.29,23,28.1S848.35,566,846.52,549.27Z"/><path class="cls-1" d="M791,649.09c-16.34,6.76-37.44,11.19-54.63,5.58a4.41,4.41,0,0,0-4.5,7.51c21.3,15.4,58.89,10.71,78.46-5.62,15.13-17.67-4.75-43.65-22-51.12-3-1.19-5.42,2.84-3,5,6.44,8.73,16.14,23.41,13.65,33.59C797.76,645.7,793.51,647.94,791,649.09Z"/><path class="cls-1" d="M724.62,762.66a95.47,95.47,0,0,0,50.79,7.15c17.68-2.55,40.5-12.16,42.48-32.86.38-5.48-7.59-7.93-10.31-3-2.89,5.3-8.18,9.28-14.79,12.78-20,10.49-43.89,10.61-66.08,7.79C721.93,753.91,720.13,760.85,724.62,762.66Z"/><path class="cls-1" d="M598.59,632.47a6.47,6.47,0,1,0,6.47-6.46A6.46,6.46,0,0,0,598.59,632.47Z"/><path class="cls-1" d="M654.45,626.18a6.47,6.47,0,1,0,6.47-6.47A6.47,6.47,0,0,0,654.45,626.18Z"/><path class="cls-1" d="M645.36,671.88a6.47,6.47,0,1,0-6.47-6.46A6.47,6.47,0,0,0,645.36,671.88Z"/><path class="cls-1" d="M834.42,607.36c0,3.57,1.92,6.47,4.28,6.47s4.27-2.9,4.27-6.47-1.91-6.47-4.27-6.47S834.42,603.79,834.42,607.36Z"/><path class="cls-1" d="M875.6,607.54c2.36,0,4.27-2.9,4.27-6.47s-1.91-6.47-4.27-6.47-4.27,2.9-4.27,6.47S873.24,607.54,875.6,607.54Z"/><path class="cls-1" d="M865.32,646.77c2.36,0,4.28-2.9,4.28-6.47s-1.92-6.47-4.28-6.47-4.27,2.9-4.27,6.47S863,646.77,865.32,646.77Z"/></svg>