<svg id="Layer_1" data-name="Layer 1" xmlns="http://www.w3.org/2000/svg" viewBox="0 0 1200 1200"><defs><style>.cls-1{fill:#212121;}</style></defs><path class="cls-1" d="M867.79,226.56C762.23,65.14,697.61,68.93,521,114.73,337.36,96.27,192.81,277.7,219.28,454c9.46,90.21,49.9,177.76,35.82,269.34-18.67,94.19-33,227,19.9,307.81,41.82,64,167.16,216.75,230.22,99.45,39.92-88.24-47.15-214.3-19.65-301.86,4.95-15.27,4.64-34.36.36-50-20.69-46.3-44.85-98.36-93.65-121.5a64.18,64.18,0,0,0,11.93-10.42,8.23,8.23,0,1,0-12.31-10.94,46.74,46.74,0,0,1-10.29,8.7c-12.09-17.39-29.64-48.53-29.88-66.16,2.59-26.12,11.55-41,24.29-51.14a45.19,45.19,0,0,1,16.17,11.92,8.24,8.24,0,1,0,12.42-10.82,64,64,0,0,0-12.54-11c13.3-6.57,28.73-11.47,44.6-19,27.9-12.67,75.87-46.07,124.55-83.09,24.07-8.51,50-11.35,75.09-5.17A5.21,5.21,0,0,0,639,400a135.59,135.59,0,0,0-51.39-5.14c56.47-44.15,109.11-89,127-107.35,2.82,5.46,47.72,56.27,98.3,109.29a176.91,176.91,0,0,0-29.77,7.84c-7.26,2.67-3.68,13.54,3.72,11.41a170.09,170.09,0,0,1,37.79-7c15.58,16.14,31.41,32.18,46.5,46.91,4.69,165.7,1.78,321.75-120.14,352-55.88,11.79-114.06-2.26-167.13-22.58-7.17-2.53-11.09,7.94-4.2,10.83,30,12,61.09,22.74,93.74,27.9a247.44,247.44,0,0,0,44.84,3.08C638.2,915.83,579.11,1063,684.2,1155.12c21.12,17.56,42.41,17,56.81-2.63,75.79-77.73-10.73-185.42,52.83-267.58C924.18,692.16,1068.15,425.91,867.79,226.56Z"/><path class="cls-1" d="M624.54,487.16c0-19.08-7.35-34.55-16.42-34.55s-16.43,15.47-16.43,34.55,7.36,34.56,16.43,34.56S624.54,506.25,624.54,487.16Z"/><path class="cls-1" d="M817.41,482.75c0-19.08-7.36-34.55-16.43-34.55s-16.42,15.47-16.42,34.55,7.35,34.56,16.42,34.56S817.41,501.84,817.41,482.75Z"/><path class="cls-1" d="M736.22,598.81c-16,2.27-37.87-.36-50.4-10.85-4.83-4.3-12.3,1.73-9,7.4,15.26,23.8,57,31.15,80.74,16.4,19.15-12.5,14.94-38.86-1.1-51.49-3.89-3.58-10.43,1.22-8,6.05C756.59,583.46,755.15,596.07,736.22,598.81Z"/><path class="cls-1" d="M663.62,690.76a4.36,4.36,0,0,0,.33,6.16,119.32,119.32,0,0,0,24.65,17.27c28.86,16.38,66.88,11.47,86.75-16.4a6.35,6.35,0,0,0-8.9-8.87c-7.5,5.26-14.78,10-22.52,13-25.14,10.69-51.86-.62-75.08-12.14A4.35,4.35,0,0,0,663.62,690.76Z"/></svg>