<svg id="Layer_1" data-name="Layer 1" xmlns="http://www.w3.org/2000/svg" viewBox="0 0 1200 1200"><defs><style>.cls-1{fill:#212121;}</style></defs><path class="cls-1" d="M730.51,913.7c-1.14,0-2.32.06-3.51.06-21.88,0-53.52-6.65-85.92-16.55,1.43,27.19,2.48,79,3.15,122,0,8.87-17.35,8.87-17.35,0-.74-46.87-1.9-104-3.5-127.74-52.76-17.88-103.72-46.38-111.18-61.14a7.62,7.62,0,0,1,2.78-10,6.65,6.65,0,0,1,9.32,3c8.89,17.59,145.94,75.08,205.39,73,153.36-9,148.07-231.59,143.83-410.45l-.26-11.48a8.41,8.41,0,0,1-3.62-1.42c-25-15.08-60.89-24.25-88.19-11-6.57,3.3-11.88-6.22-5.61-10.08C799.6,438.16,828.7,440.65,854,448a126.79,126.79,0,0,1,18.67,7.16c-.28-7.31-.77-14.44-1.68-21.53q-.56-5-1.43-10.2c-29.54-27.37-82.5-80.91-89-107.25-7.83,12.24-80.12,38.52-135.44,43.08-55.48,4.58-75.55,1.48-160.07-15.33-1.63,27.57-64.62,203-78.49,223.07s-29.21,23.17-53.84-3.11c-21.09-22.33-47.48-23.1-66.1-17.34.4,1.93.73,3.68.92,5.09,2.07,14.18-10.81,17-16.3,18.15-8.87,1.92-15.88,3.45-13.67,26,2.55,25.08,8.25,56,29.83,72.55C303.18,680.33,326.6,684,357,679a8.67,8.67,0,0,1,2.8,17.11,174.85,174.85,0,0,1-24.25,2.3c18.32,30.26,45.75,88.25,45.75,124,0,28.43-4.21,132.26-6.94,196.82,0,7.27-17.37,7.27-17.37,0,2.74-64.42,7-169,7-196.82,0-35.91-34.35-103.92-49.82-125.36-14.56-2.23-27.07-7.22-37.31-15.07-26.84-20.57-33.62-56-36.53-84.57-3.73-37.92,17.2-42.45,27.24-44.63.78-.17,1.71-.36,2.52-.57-.28-1.59-.66-3.32-1.09-5.35-5-23.43-18.36-85.67,16.05-231.91,16.52-70.24,76-120.71,172-145.93C528.32,150.31,593.7,151.89,596.43,152c108.46,0,272.15,106.35,291.82,279.54a259.65,259.65,0,0,1,2,28.42l.59,25.61C895.27,671.84,900.78,903.7,730.51,913.7Z"/><path class="cls-1" d="M299.44,583a8.67,8.67,0,0,0,9.09,14.77c7.48-4.6,23.63-1.42,32.46,9.45a8.67,8.67,0,0,0,13.46-10.93C340.85,579.56,315.14,573.36,299.44,583Z"/><path class="cls-1" d="M649.74,457.74c-32.72-17.51-73-9.8-104.8,6.45-10.12,6-1,21,8.94,14.86,13-8.2,29.16-13.62,44.5-16.15,15.67-2.48,32.14-2,45.76,4.93a5.77,5.77,0,0,0,5.6-10.09Z"/><path class="cls-1" d="M603.54,514.17c-9.63,0-17.44,16.43-17.44,36.71s7.81,36.7,17.44,36.7S621,571.15,621,550.88,613.17,514.17,603.54,514.17Z"/><path class="cls-1" d="M821.89,585.57c9.11,0,16.49-15.53,16.49-34.69s-7.38-34.7-16.49-34.7-16.48,15.53-16.48,34.7S812.79,585.57,821.89,585.57Z"/><path class="cls-1" d="M756.16,663.3c-19.68,11.66-39,10.45-66.7-4.16a8.67,8.67,0,1,0-8.09,15.33c17.71,9.34,33.36,14,47.92,14,12.49,0,24.19-3.42,35.71-10.24,8.49-5,13.78-12.39,15.28-21.25,3.13-18.46-10.87-37.48-17-44.8A8.67,8.67,0,1,0,750,623.34c7.41,8.79,14.77,21.49,13.2,30.74C762.78,656.49,761.61,660.07,756.16,663.3Z"/><path class="cls-1" d="M651.93,747.7a8.67,8.67,0,0,0,2.83,11.92q34.89,21.51,65.16,21.5c24.8,0,47.15-10.86,66.85-32.54a8.67,8.67,0,1,0-12.83-11.66c-30.11,33.15-65.09,35.67-110.08,8A8.66,8.66,0,0,0,651.93,747.7Z"/></svg>