<svg id="Layer_1" data-name="Layer 1" xmlns="http://www.w3.org/2000/svg" viewBox="0 0 1200 1200"><defs><style>.cls-1{fill:#212121;}</style></defs><path class="cls-1" d="M938.46,755.71c-4.58-30.51-8.79-61.33-9.66-92.11-1.86-66.22-.67-132.53-2.28-198.77-.79-32.4-8-63.67-25.33-92.18-5.57-9.19-10.23-21-9.73-31.4,1.59-32.92-4.7-63.8-16.47-94.22-26.44-68.37-88.51-111.41-161.14-111.67A52,52,0,0,1,690.62,130C639,102.79,584.21,94.17,527.43,105.29,426.5,125.07,348.25,178.77,306.79,274.2,279.56,336.87,259,402.27,249.63,471.71c-9,66.73-11.82,131.89,1.6,197.61,15.39,75.36,35.18,150.09,26.89,228.33-1.32,12.42,6.28,14.05,15.62,7.39,12-8.54,23.79-17.37,35.66-26.07l6.93,4.48Q320,923.07,303.74,962.68l4.75,3q11.17-16.41,22.34-32.81l5.51,1.7c-3.95,16.54-8.5,33-11.59,49.64-1.61,8.67-3.28,18.84-.34,26.58,10.43,27.43,31.57,44.73,58,56.53,39.84,17.77,112.36,79.19,118,82.41.68-5.4-2.8-122.45-4.16-178.62-1.75-72-14.65-141.62-40-209.11-9.73-26-18.59-52.42-25.16-79.32-7.35-30.1.94-57.18,21.56-80.92C480.32,569.94,502,534.48,512.08,493c9.44-38.86,34.52-61.3,71.54-73.3,61-19.79,114.31-52.19,157.9-99.9,14.29-15.66,22.19-16.24,35.67-.49,29.8,34.8,54.73,72.63,66.29,117.82,0,.1,0,.23.07.35-25.57-14.91-54.3-3.12-67,22.4-3.21,5.72,4.72,11.56,9.23,6.72,10-10.55,20.93-19,32.8-18.91,9.08-.24,18.65,3.68,28.25,8.9,1.25,5.68,3,12.71,5.65,21.39,17.29,57.31,24.55,115.47,24,175.66-.5,51.58-13.29,97.83-42.91,138.62-32.25,44.42-73,77.76-132.12,75.78-15.45-.52-30.9-1.95-47.1-3.64a251.39,251.39,0,0,1-46-12.93,4.69,4.69,0,0,0-3.85,8.56c22.44,10.27,46,16.47,70.14,20.88,8.49,1.3,16.95,2.49,25.42,3.24a42.59,42.59,0,0,1,2,12.41c.25,6.19-1,12.47-1.79,18.68-2.7,21.82-7.95,43.65-7.75,65.44.53,58.94,56.2,170,63.18,175.39,1.43-51.71,25.19-88.08,61.56-113.84,28.61-20.27,52.55-42.33,68.91-73.46C921.31,902,950.23,834.13,938.46,755.71Z"/><ellipse class="cls-1" cx="624.72" cy="553.61" rx="14.2" ry="30.28"/><path class="cls-1" d="M816,582.62c12.11,0,13.77-13,13.77-29s-2-29-13.77-29-13.76,13-13.76,29S803.93,582.62,816,582.62Z"/><path class="cls-1" d="M752.85,647.55c-13,6.7-29.93,4.44-43.37-2.08a4.3,4.3,0,0,0-5,.78c-6.74,7.9,19.17,18.75,25.62,19.51,38.21,8.34,65.07-28.66,36.81-58.57-3.18-3.52-9.41.24-7.65,4.74C764.11,625.46,766.56,640.31,752.85,647.55Z"/><path class="cls-1" d="M679.4,731.36a5.8,5.8,0,0,0,0,8.19,116.48,116.48,0,0,0,23.93,18.89c30.22,19.14,65.67,9.23,87-17.93,6.32-7.75-4.64-17.69-11.73-10.61-29.79,31.5-59.56,25.72-91.59,1A5.79,5.79,0,0,0,679.4,731.36Z"/><path class="cls-1" d="M673.18,478.79a5.75,5.75,0,0,0,5.23-10.17,100.31,100.31,0,0,0-27.94-12.89c-31-10.12-66.56,4.33-84,31.28-4,5.52,3.78,12.23,8.68,7.46C604.46,465.53,636.06,463.78,673.18,478.79Z"/></svg>