<svg id="Layer_1" data-name="Layer 1" xmlns="http://www.w3.org/2000/svg" viewBox="0 0 1200 1200"><defs><style>.cls-1{fill:#212121;}</style></defs><path class="cls-1" d="M929.66,395.27C1078.06,370.44,1038,232.1,902.75,232.5,961.37,120,785.72,58.71,726.23,117.23c-17.54,15.83-34.3,32.53-50.45,47.91-145.57-96.49-383.86,7-369.24,194.5-4,40.35-111.27,8.09-120.32,133.73-2.19,52.41,6.14,102.89,22.08,152.47,45.1,170.84-124.58,254.45,44.29,419,53.47,65.12,150.55,37.63,220.17,14.51,137.87-58,21-253.24.86-356.9-11.39-72.59,81-111.87,59-141.73-3.51-4.47-2.46-14.78-.09-21.14C549.83,444,674.57,449.94,743.68,383c7.47-8.19,11.43-9.64,20.57-4,26,24.57,72.64,10.76,93,38.34a514.33,514.33,0,0,1,11.22,53.15c-19.65-12.27-45.87-14.28-67.33-6-4.76,1.74-3.5,9.15,1.62,9.17,13.61.15,26.8.69,39.75,4.11,10.17,2.68,19.37,6.77,28.79,11.26C891,627.64,890.86,848.67,825,845.89A456,456,0,0,1,685,833.63q-5.77-1.64-11.48-3.43c-27.54-8.85-55.73-20-80.42-34.78a4.06,4.06,0,0,0-4.83,6.53,200.91,200.91,0,0,0,19.18,12.58,456.26,456.26,0,0,0,60.92,30,385.1,385.1,0,0,0,60.71,19.15c-25.9,57.88,20.56,133-31.13,173.85-17.64,11.26-18.41,33.53.22,42.54,63.27,20.61,147.84,16,191.48-39.93C943.46,963.46,845.47,982.7,942,805c53.63-135.06-60.13-257.8-28.28-393.51C915.7,401.72,919.42,396.92,929.66,395.27Z"/><path class="cls-1" d="M773.18,650.34c-.52-.15-10-2.19-10.29-2.28a7.13,7.13,0,0,0-2.29,14.08l10.63,1.73c11.7,1,23.13,1.48,33.9-6,14.07-10.53,12-33,0-44.7-4.89-4.13-11,3.43-6,7.4,3,3.16,5,10.26,5,15C804.65,652.5,785.78,652.64,773.18,650.34Z"/><path class="cls-1" d="M739.52,734.34c26.41,26.38,62.08,20.82,83.63-8.32,3.48-4.38-2.76-10.09-6.82-6.21-22.42,21.67-44.61,25.79-70.53,6.88C740.91,723.23,735.17,730.19,739.52,734.34Z"/><path class="cls-1" d="M714,474.43c-31.1-10.53-66.72,4-88,27.4-3.9,4.28,1.14,11.18,6.44,8.69,6.83-3.09,13.33-6.28,19.9-9,19.58-8.77,39.57-12.56,60.69-16.26C718.56,484.37,719.36,476.3,714,474.43Z"/><path class="cls-1" d="M666.75,561.5c0,12.84,7.32,23.25,16.35,23.25s16.35-10.41,16.35-23.25-7.32-23.25-16.35-23.25S666.75,548.66,666.75,561.5Z"/><path class="cls-1" d="M860.43,552.76c0-12.84-7.32-23.25-16.35-23.25s-16.35,10.41-16.35,23.25S835.05,576,844.08,576,860.43,565.6,860.43,552.76Z"/></svg>