<svg id="Layer_1" data-name="Layer 1" xmlns="http://www.w3.org/2000/svg" viewBox="0 0 1200 1200"><defs><style>.cls-1{fill:#212121;}</style></defs><path class="cls-1" d="M514.78,847.41c71.14,44.35,167.73,64.7,242.69,18.67,14.1-9.21,26.78-20.37,36.72-33.62a384.31,384.31,0,0,0,46-91.81c28.14-81.6,26.73-171.28,7.32-254.88-12.26-49.22-28.43-99.76-55.36-142.83a8.84,8.84,0,1,1,14-10.73c5.92,8.42,9.71,16.08,13.84,24.21,19.54,40,33.39,82.44,43.33,125.73,27.94,120.77,14.68,255-58.71,358-33.55,44.11-90,64.14-144,63.69-17.9-.59-35.85-2.18-53.2-6.52-34.86-7.91-67.89-22.45-97.93-41.3-5.45-3.66-.39-11.93,5.33-8.58Z"/><path class="cls-1" d="M672.35,900.59v118c0,15.29-17.66,15.29-17.66,0v-118a8.82,8.82,0,0,1,6.17-8.42,8.78,8.78,0,0,1,5.07-.07A8.81,8.81,0,0,1,672.35,900.59Z"/><path class="cls-1" d="M359.86,1018.6c0,9.3-17.7,9.3-17.7,0-7-120.06-18.08-285.31-23.05-298.94a7.31,7.31,0,0,1-.31-1.08,8.82,8.82,0,0,1,16.8-5.26,30.2,30.2,0,0,1,1.15,4.39C343.8,752.33,355.06,935.93,359.86,1018.6Z"/><path class="cls-1" d="M322.54,718.64a97.13,97.13,0,0,1-56.85-17.95c-30-21.13-51.31-60.82-55.7-103.57-3.09-30.17,9.7-45.4,21-52.87,26.07-17.27,66.34-9.52,92.72,5a8.83,8.83,0,0,1-8.51,15.48c-25.9-14.24-57.9-16.72-74.45-5.75-10.48,6.95-14.91,19.17-13.15,36.33,3.88,37.82,22.39,72.67,48.3,90.94C296.09,700.51,319.7,704.49,346,698a8.83,8.83,0,0,1,4.21,17.16A116.13,116.13,0,0,1,322.54,718.64Z"/><path class="cls-1" d="M234.55,550.48c-26.81-61.5-33.11-146.67-17.34-175s36.27-82,41-96.2,64.66-74.12,80.43-83.59,55.2-31.54,94.62-28.38,63.09-15.78,118.28-4.74S636.7,183,657.21,186.18s104.08,34.7,118.28,55.2,58.35,48.89,39.42,108.81c-12.61,7.89-66.23-26.81-82-36.27s-104.08,25.24-126.16,23.66-108.82-28.39-156.13,0-63.08,53.62-63.08,156.13-4.73,126.16-4.73,126.16-25.24-3.15-33.12-41-20.5-91.47-61.51-63.08S234.55,550.48,234.55,550.48Z"/><path class="cls-1" d="M322.49,622.11a8.81,8.81,0,0,1-6.24-2.58,237.88,237.88,0,0,0-24.57-20.62c-5.91-4.32-11.37-1.57-22.48,11.33l-1.47,1.69a8.83,8.83,0,1,1-13.29-11.63l1.37-1.58c7.58-8.81,25.35-29.43,46.32-14.06A251.92,251.92,0,0,1,328.74,607a8.84,8.84,0,0,1-6.25,15.08Z"/><path class="cls-1" d="M897,500.51l-.7-2.7-2.13-1.8A105.79,105.79,0,0,0,862.11,477a90.25,90.25,0,0,0-18-4.56c-49.83-7.29-94.71,28.52-110.57,43l-10.1-10.12.76,10.45c-24.18-4.86-48.52-2.68-72.59,6.51-73.08-59.14-144.88-56.72-213.54,7.19l-.48-.05c0,.14,0,.32,0,.54-.29.26-.57.54-.86.81H249.82v17.67h189c3.35,27.45,14.1,77.91,43.76,111.73,19.62,22.37,44.21,34,73.09,34.62l2.24,0c27.37,0,50-10.47,67.32-31.15,31.75-37.93,36-99.83,35.89-122,12-1.69,40.93-2.85,54.43-3.4,4.08-.16,7.48-.3,10.32-.43,10.73,110,67.69,135.06,114.7,136.5a72.19,72.19,0,0,0,16.3-2.15,56.19,56.19,0,0,0,31.85-21.24C923.66,604.61,898.11,504.75,897,500.51ZM609.29,655c-14,15.3-31.29,22.7-53.27,22.06-23.06-.46-42.85-9.58-58.81-27.08-31.62-34.64-40.37-92.69-41.87-112.4,61.22-53.85,122.85-53.54,188.09.83C644.09,552.47,641.31,620.07,609.29,655Zm265.93-15.59-.61.83a39.22,39.22,0,0,1-15.26,12.39,47.11,47.11,0,0,1-18.72,4c-58.19-1.78-91-44.14-97.67-125.9,6.18-6,23-21.08,44.81-31.34s42.11-12.88,61-8.07a77.5,77.5,0,0,1,18.1,7.15,93.32,93.32,0,0,1,13.73,9.21C884.28,523.43,901.34,603.28,875.22,639.45Z"/><path class="cls-1" d="M482.68,459.38c36.51-29.47,93.48-30.14,131.22-3.49,8.34,5.75,2,18.85-7.64,15.93-28.45-8-57.38-13.48-86.41-6.44a175.24,175.24,0,0,0-28.25,9.2c-9.44,3.84-16.83-8.93-8.92-15.2Z"/><path class="cls-1" d="M761.93,450c23-30.44,72.07-32.17,97.3-3.68,6.35,6.6-.8,17.69-9.35,14.79-13.35-4.31-25.7-8.95-39.24-8.76-13.3.14-25.39,5-37.6,11.24-8.39,4.39-17-6.36-11.11-13.59Z"/><ellipse class="cls-1" cx="570.25" cy="563.24" rx="16.3" ry="28.35"/><ellipse class="cls-1" cx="793.81" cy="556.88" rx="15.42" ry="26.81"/><path class="cls-1" d="M724.74,606.28c24.81,14.92,43.57,45,10.52,63.76C714.42,682.78,684.93,688.81,663,674c-6.18-4.64-22.67-18.37-13-25.3a6.83,6.83,0,0,1,9,1.58c14.62,18.42,39.32,17.83,59.49,8.41,17.08-8,24.05-13.25,11.59-31.24a182.28,182.28,0,0,0-11.24-14.54c-3.31-3.74,1.81-9.41,5.86-6.61Z"/><path class="cls-1" d="M752.93,732.06c-10.54,32.16-49.07,38.82-78,33.47-9.43-1.43-18.41-4.19-27.28-7.09a7.31,7.31,0,1,1,4.67-13.85c26.85,8.48,71.58,14.52,83.72-17.8,3.57-11.13,20.26-5.95,16.86,5.27Z"/></svg>