<svg id="Layer_1" data-name="Layer 1" xmlns="http://www.w3.org/2000/svg" viewBox="0 0 1200 1200"><defs><style>.cls-1{fill:#212121;}</style></defs><path class="cls-1" d="M1003.08,267.79c-25.51,27.48-94.22-29.45-149.18-25.51,3.92,7.84,151.15,147.21,111.89,174.69s-88.33-43.19-125.63-68.7c17.66,25.51,121.7,145.26,88.33,170.77-14.88,11.38-28.58,3.62-43.38-12.8,6.24,104.82,1.72,255.23-50.35,326.68C796.47,879,735.4,907.11,674.28,911.47a8.77,8.77,0,0,1-.18,3.37c-2.88,11.51-5,59.89-6.56,112.84,0,11.58-18.17,11.58-18.17,0,1.47-51.08,3.65-100.35,6.77-115.6a210.42,210.42,0,0,1-50-6.14c-29.65-7.43-57.25-21.74-81.31-40.22a5.94,5.94,0,1,1,7.3-9.38c23.07,17.36,49.18,30.55,77.06,37.3,74.72,17.85,159-9.15,210.78-65.57,49.28-64.29,51.6-199.63,49.66-279.65q-1.12-33.6-4.23-67.1c-3.59-4.88-7.29-10-11.1-15.15-23.93-2-50.67-.57-62.67,6.59a9.08,9.08,0,1,1-9.31-15.6c12.6-7.52,35-10.28,57.63-9.85-6.11-7.71-12.56-15.33-19.43-22.49C773.42,375.75,708.81,317.7,680.1,322.92c-108,19.62-193.27,152.94-234.49,215.76s-37.29-9.82-37.29-51S508.42,311,508.42,311a784.61,784.61,0,0,0-70.66,53C400.47,395.38,365.13,505.3,337.65,519c-41.22-15.7,13.74-127.58,31.4-194.32-18,16.62-42.86,91.88-65.59,132,3.47,12,6.85,28,11.08,48.46,2.5,12.2,5.12,24.79,8,37.2a143,143,0,0,1,45.7,10.51,9.08,9.08,0,0,1-6.94,16.79c-33.62-13.9-77.84-14.23-90.69,9.47-14.63,27-9.93,62,12.23,91.25,17.86,23.56,50.48,45.69,88.54,37.09a9.08,9.08,0,1,1,4,17.72c-2.23.52-4.48.81-6.73,1.14,9.24,31.32,11.44,94.41,11.44,103.66,0,18.43.5,114.07,1,197.69,0,8-18.17,8-18.17,0-.47-83.63-1-179.24-1-197.69,0-14.59-3.17-79-12.08-102.66-30.54-1.61-60.26-18-81.48-46-26.54-35-31.79-77.52-13.73-110.86,9.17-16.91,27.79-25.61,49.37-27.8-2.57-11.37-5-22.77-7.25-33.85-2.17-10.57-4.57-22.19-7-32.6-4.5,4.51-8.85,6.68-12.91,5.52-62.75-25.49,9.68-145,23.5-174.61-2,3.88-71,135.13-98.1,119.65-27.48-15.71,15.71-178.63,100.12-268.92S518.24,73.46,575.16,83.28c55-35.34,157-27.48,227.7-3.93S1028.61,240.31,1003.08,267.79Z"/><path class="cls-1" d="M306.63,585.93a9.09,9.09,0,0,0,1.21,18.14c13-1.05,46,13.81,49.15,29.65a9.09,9.09,0,0,0,17.82-3.56C369.35,602.85,326.27,584.65,306.63,585.93Z"/><path class="cls-1" d="M699.07,460.5c-22.6-11.3-99.2-13.2-126.29,9.39a9.08,9.08,0,1,0,11.63,14c20.61-17.18,89.22-15.75,106.53-7.09a9.09,9.09,0,0,0,8.13-16.26Z"/><ellipse class="cls-1" cx="623.42" cy="534.88" rx="18.39" ry="29.91"/><path class="cls-1" d="M835.14,528.37c0-16.52-8.23-29.91-18.39-29.91s-18.38,13.39-18.38,29.91,8.23,29.91,18.38,29.91S835.14,544.89,835.14,528.37Z"/><path class="cls-1" d="M714.33,661.32c-10.68-.7-22-3.62-32.67-7.38a3.58,3.58,0,0,0-3.36,6.23,84.65,84.65,0,0,0,34,15.77c26.57,7.46,61.62-11.65,62-42.18-.41-15-10.45-25.82-20.41-34.37-4.88-4.35-12.38,2-8.8,7.55,5.25,8.5,12.23,17.29,11.71,26.71C753.43,652.69,733.61,663.31,714.33,661.32Z"/><path class="cls-1" d="M783.52,735.56a5.84,5.84,0,0,0-7.08-8.93l-2.8,1.34a51.75,51.75,0,0,1-11.44,4.56c-3.59,1-10.93,2.5-14.59,3.1-28.61,3.77-62.16,8.29-88.87-4.07a5.26,5.26,0,0,0-6.87.66c-8,10.69,25.72,21,32.31,22,27.77,5,57.11,3.72,83.44-6.85C773.49,744.65,779.64,741,783.52,735.56Z"/><path class="cls-1" d="M707.11,769.91a5.28,5.28,0,0,0-4.49,1.73c-6.87,10,17.63,17,25.07,16.86,9.15.37,18.5-2.26,25.26-8.06,5.07-4.18,1.3-12.84-5.29-11.9C732.73,770.16,722.26,771.47,707.11,769.91Z"/></svg>