<svg id="Layer_1" data-name="Layer 1" xmlns="http://www.w3.org/2000/svg" viewBox="0 0 1200 1200"><defs><style>.cls-1{fill:#212121;}</style></defs><path class="cls-1" d="M868.16,775.71c-1.94-12.31,6.77-35.88,5.84-54.51-1.88-7.73-13.57-9.63-7.72-17.54,9.38-62.3,2.06-277.77,5.84-332.59C846.73,46.16,433.93,6.45,287.22,195.49c-97.55,31.2-80.06,211.83-64,314.58-14.17,7.82-39.42,27.07-35.53,64,2.8,26.55,21.58,65.36,52.07,88.16,12,8.95,24.61,14.44,37.39,16.45C284,693,304.2,765.69,309,822c3.35,39.33,5.55,142.34,6.6,203.64,0,15.39,18.28,15.39,18.28,0-1.06-61.49-3.26-165.08-6.67-205.19-4-46.47-19.89-112.85-30.34-141.5,1.15-.15,2.31-.27,3.46-.47a9.14,9.14,0,0,0-3.3-18c-15.48,2.85-31.06-1.48-46.29-12.87-26-19.45-42.51-53.39-44.84-75.45-3.76-35.71,32.09-49,32.46-49.1a9.13,9.13,0,0,0,1.19-.55c17.77-3,48.32-7.81,65.53-7.81,25.27,0,27.35,134.47,27.35,146.17s33.07,31.11,44.76,40.92c52.14,64.32,113.46,159.62,177.29,204.52,17.42,14,32.53,31.59,53.28,43.12l-2.8,76.19c0,19.59,18.28,19.59,18.28,0l2.52-68.51c12.28,3.85,26.48,5.6,43.76,3.82,64.56,16.81,65-27.22,138.25-29.17C876,905.06,866.4,833.56,878,795.32Zm-141.11-7.8A108.44,108.44,0,0,1,673.22,790c-22.91,2.49-47.57-5.06-64.26-20.82-7.61-6.89,1-18.83,9.94-14.08,29.35,15,62.05,11.82,91.53-1.09l6.7-2.75,7.67-3.35a8.4,8.4,0,0,1,11,4.45C738.81,759.2,731.74,764.19,727.05,767.91Zm111.33-62.66c-4.62,6.81-32.52,4.62-46.41,23.19-13.76-16.38-55.53-34.89-78.8-23.19-27.65,2.18-92.69-14-122.79,13.88-23,6.88-46.22,6.88-57.79,18.39-11.69-16.13-41.78-39.34-76.49-39.34-20.83-13.76-44-55.55-62.61-69.49-8.64-36.9,6.45-70-2.07-114.87,0,0,9-41.47-5-69.18,27.89-25.45,80.15-87.15,78.93-114.86-.68-14.8,88.06,27.9,155.12,16.32C687.72,334.41,771.15,316,771.15,316s44,83.43,76.55,111.08c.53,5.51.95,13.21,1.3,22.42-6.69-3-16.11-3.92-21.28-5.36-23.47-3.72-48-1.37-70.44,5.5-10.61,3.34-7.06,19.33,4,17.81,14.31-2.07,28.53-3.57,42.67-3.53a224,224,0,0,1,41.75,4,9.17,9.17,0,0,0,3.8-.13C851.14,546.85,847.8,692,838.38,705.25Z"/><path class="cls-1" d="M551.1,504.92c-12.76,0-23.11,12.7-23.11,28.35s10.35,28.36,23.11,28.36,23.12-12.7,23.12-28.36S563.87,504.92,551.1,504.92Z"/><ellipse class="cls-1" cx="771.94" cy="533.27" rx="23.11" ry="28.35"/><path class="cls-1" d="M568.11,440.56c-31.09-.83-61.8,4.3-91.49,12.9-10.66,3.17-7.33,19.24,3.76,17.87,17.16-2.21,41.75-5.58,58.69-7.28,18.66-1.95,38.29-3.18,56.51-.62a9.18,9.18,0,0,0,10.41-6.1C610.82,441,577.74,441.74,568.11,440.56Z"/><path class="cls-1" d="M706.18,596.15a6,6,0,0,0-8.39,8.39c7.82,9.55,18.31,18.06,24.23,27.93,1.55,3.43,2.51,4.53.16,6.55-23.41,15.86-57.2,6.9-77-12a5.52,5.52,0,0,0-7.28-.77,5.43,5.43,0,0,0-1.22,7.59,76.21,76.21,0,0,0,33.12,26.26c19.75,9.83,70.3,5.59,71.36-23.05C739.17,617.2,719.31,607.33,706.18,596.15Z"/><path class="cls-1" d="M251.69,563.72c-5.88,4.37-1.6,14.24,5.7,12.81,15.74-2.87,27.09-10.13,40.92-.17a7.08,7.08,0,0,0,9.93-9.93C295.54,548.21,266.4,551,251.69,563.72Z"/></svg>